<svg width="64" height="64" viewBox="0 0 64 64" fill="none" xmlns="http://www.w3.org/2000/svg">
<path d="M0 32C-6.26191e-08 27.7977 0.827704 23.6365 2.43585 19.7541C4.04401 15.8717 6.40111 12.3441 9.37258 9.37258C12.3441 6.40111 15.8717 4.04401 19.7541 2.43586C23.6365 0.827705 27.7977 0 32 0C36.2023 0 40.3635 0.827705 44.2459 2.43586C48.1283 4.04401 51.6559 6.40111 54.6274 9.37258C57.5989 12.3441 59.956 15.8717 61.5641 19.7541C63.1723 23.6365 64 27.7977 64 32C64 40.4869 60.6286 48.6263 54.6274 54.6274C48.6263 60.6286 40.4869 64 32 64C23.5131 64 15.3737 60.6286 9.37258 54.6274C3.37142 48.6263 1.26465e-07 40.4869 0 32ZM32 16C31.2928 16 30.6145 16.281 30.1144 16.781C29.6143 17.2811 29.3333 17.9594 29.3333 18.6667V29.3333H18.6667C17.9594 29.3333 17.2811 29.6143 16.781 30.1144C16.281 30.6145 16 31.2928 16 32C16 32.7072 16.281 33.3855 16.781 33.8856C17.2811 34.3857 17.9594 34.6667 18.6667 34.6667H29.3333V45.3333C29.3333 46.0406 29.6143 46.7189 30.1144 47.219C30.6145 47.7191 31.2928 48 32 48C32.7072 48 33.3855 47.7191 33.8856 47.219C34.3857 46.7189 34.6667 46.0406 34.6667 45.3333V34.6667H45.3333C46.0406 34.6667 46.7189 34.3857 47.219 33.8856C47.7191 33.3855 48 32.7072 48 32C48 31.2928 47.7191 30.6145 47.219 30.1144C46.7189 29.6143 46.0406 29.3333 45.3333 29.3333H34.6667V18.6667C34.6667 17.9594 34.3857 17.2811 33.8856 16.781C33.3855 16.281 32.7072 16 32 16Z" fill="#6399CB"/>
</svg>
